HIERARCHY
ROOT Hips
{
	OFFSET 0.000000 0.000000 0.000000
	CHANNELS 6 Xposition Yposition Zposition Zrotation Yrotation Xrotation 
	JOINT LHipJoint
	{
		OFFSET 0.000000 0.000000 0.000000
		CHANNELS 3 Zrotation Yrotation Xrotation
		JOINT LeftUpLeg
		{
			OFFSET 1.363060 -1.794630 0.839290
			CHANNELS 3 Zrotation Yrotation Xrotation
			JOINT LeftLeg
			{
				OFFSET 2.448110 -6.726130 0.000000
				CHANNELS 3 Zrotation Yrotation Xrotation
				JOINT LeftFoot
				{
					OFFSET 2.562200 -7.039590 0.000000
					CHANNELS 3 Zrotation Yrotation Xrotation
					JOINT LeftToeBase
					{
						OFFSET 0.157640 -0.433110 2.322550
						CHANNELS 3 Zrotation Yrotation Xrotation
						End Site
						{
							OFFSET 0.000000 0.000000 0.000000
						}
					}
				}
			}
		}
	}
	JOINT RHipJoint
	{
		OFFSET 0.000000 0.000000 0.000000
		CHANNELS 3 Zrotation Yrotation Xrotation
		JOINT RightUpLeg
		{
			OFFSET -1.305520 -1.794630 0.839290
			CHANNELS 3 Zrotation Yrotation Xrotation
			JOINT RightLeg
			{
				OFFSET -2.542530 -6.985550 0.000000
				CHANNELS 3 Zrotation Yrotation Xrotation
				JOINT RightFoot
				{
					OFFSET -2.568260 -7.056230 0.000000
					CHANNELS 3 Zrotation Yrotation Xrotation
					JOINT RightToeBase
					{
						OFFSET -0.164730 -0.452590 2.363150
						CHANNELS 3 Zrotation Yrotation Xrotation
						End Site
						{
							OFFSET 0.000000 0.000000 0.000000
						}
					}
				}
			}
		}
	}
	JOINT LowerBack
	{
		OFFSET 0.000000 0.000000 0.000000
		CHANNELS 3 Zrotation Yrotation Xrotation
		JOINT Spine
		{
			OFFSET 0.028270 2.035590 -0.193380
			CHANNELS 3 Zrotation Yrotation Xrotation
			JOINT Spine1
			{
				OFFSET 0.056720 2.048850 -0.042750
				CHANNELS 3 Zrotation Yrotation Xrotation
				JOINT Neck
				{
					OFFSET 0.000000 0.000000 0.000000
					CHANNELS 3 Zrotation Yrotation Xrotation
					JOINT Neck1
					{
						OFFSET -0.054170 1.746240 0.172020
						CHANNELS 3 Zrotation Yrotation Xrotation
						JOINT Head
						{
							OFFSET 0.104070 1.761360 -0.123970
							CHANNELS 3 Zrotation Yrotation Xrotation
							End Site
							{
								OFFSET 0.000000 0.000000 0.000000
							}
						}
					}
				}
				JOINT LeftShoulder
				{
					OFFSET 0.000000 0.000000 0.000000
					CHANNELS 3 Zrotation Yrotation Xrotation
					JOINT LeftArm
					{
						OFFSET 3.362410 1.200890 -0.311210
						CHANNELS 3 Zrotation Yrotation Xrotation
						JOINT LeftForeArm
						{
							OFFSET 4.983000 -0.000000 -0.000000
							CHANNELS 3 Zrotation Yrotation Xrotation
							JOINT LeftHand
							{
								OFFSET 3.483560 -0.000000 -0.000000
								CHANNELS 3 Zrotation Yrotation Xrotation
								JOINT LeftFingerBase
								{
									OFFSET 0.000000 0.000000 0.000000
									CHANNELS 3 Zrotation Yrotation Xrotation
									JOINT LeftHandIndex1
									{
										OFFSET 0.715260 -0.000000 -0.000000
										CHANNELS 3 Zrotation Yrotation Xrotation
										End Site
										{
											OFFSET 0.000000 0.000000 0.000000
										}
									}
								}
								JOINT LThumb
								{
									OFFSET 0.000000 0.000000 0.000000
									CHANNELS 3 Zrotation Yrotation Xrotation
									End Site
									{
										OFFSET 0.000000 0.000000 0.000000
									}
								}
							}
						}
					}
				}
				JOINT RightShoulder
				{
					OFFSET 0.000000 0.000000 0.000000
					CHANNELS 3 Zrotation Yrotation Xrotation
					JOINT RightArm
					{
						OFFSET -3.136600 1.374050 -0.404650
						CHANNELS 3 Zrotation Yrotation Xrotation
						JOINT RightForeArm
						{
							OFFSET -5.241900 -0.000000 -0.000000
							CHANNELS 3 Zrotation Yrotation Xrotation
							JOINT RightHand
							{
								OFFSET -3.444170 -0.000000 -0.000000
								CHANNELS 3 Zrotation Yrotation Xrotation
								JOINT RightFingerBase
								{
									OFFSET 0.000000 0.000000 0.000000
									CHANNELS 3 Zrotation Yrotation Xrotation
									JOINT RightHandIndex1
									{
										OFFSET -0.622530 -0.000000 -0.000000
										CHANNELS 3 Zrotation Yrotation Xrotation
										End Site
										{
											OFFSET 0.000000 0.000000 0.000000
										}
									}
								}
								JOINT RThumb
								{
									OFFSET 0.000000 0.000000 0.000000
									CHANNELS 3 Zrotation Yrotation Xrotation
									End Site
									{
										OFFSET 0.000000 0.000000 0.000000
									}
								}
							}
						}
					}
				}
			}
		}
	}
}
MOTION
Frames: 9
Frame Time: 0.008333
-6.585680 17.854416 7.279093 -163.183457 -75.157301 169.766604 -1.330505 -1.209304 -1.150091 -13.437141 -8.620831 -16.686178 0.173835 6.768452 17.318070 -0.069872 3.520779 6.430842 0.000200 0.079900 0.219500 0.152228 1.439731 -1.775328 22.988942 -0.528828 -14.072426 -7.930828 -16.624366 53.129657 -0.295797 -3.749641 13.412191 -0.146400 -2.465700 6.794500 0.754660 1.013298 1.491134 0.486559 1.693446 -5.627630 4.454346 0.625545 -2.688595 -13.913871 -12.495470 -9.224298 9.924203 -14.972830 3.484525 4.438100 -7.337500 6.536400 5.880960 3.013373 0.700810 -87.732066 7.156029 -0.966165 12.048286 -28.832095 -3.426903 1.565831 2.511428 24.975164 12.979657 23.722531 4.543100 -7.125000 0.000000 0.000000 -15.870600 50.510600 -2.203400 -3.590674 -3.057066 -1.546233 86.433274 2.306973 18.420006 -18.499864 33.167127 -5.578025 -0.743691 0.244528 28.556615 -32.424145 -43.436145 23.084500 7.125000 0.000000 0.000000 14.191700 -77.998500 -10.967700 
-6.724522 17.864781 7.253976 -164.036824 -75.225202 170.521130 -1.349255 -1.195904 -1.122800 -13.866305 -8.502692 -16.047701 0.161074 6.729834 17.208397 -0.061391 3.406052 6.164885 0.000700 0.174700 0.480000 0.140022 1.441727 -1.801063 22.413951 -0.524013 -14.994365 -8.232818 -16.833988 54.123122 -0.163231 -4.672510 13.151032 -0.124500 -2.274600 6.265200 0.577180 0.855923 1.560377 0.523808 1.492831 -5.589753 4.645224 0.524841 -2.628832 -13.780682 -12.353994 -9.348310 9.780339 -14.784989 3.516390 4.386300 -7.246900 6.516300 5.938585 3.024766 0.697455 -88.086222 7.190830 -1.402236 11.604624 -28.334307 -3.294374 1.603310 2.503329 25.686801 12.808392 23.720755 4.476600 -7.125000 0.000000 0.000000 -16.029000 50.470200 -2.210200 -3.597558 -3.095173 -1.524847 87.060078 0.999216 17.651914 -16.855761 31.218920 -4.702114 -0.735707 0.287459 28.059881 -29.951187 -42.414709 20.740700 7.125000 0.000000 0.000000 16.082000 -76.118700 -11.816600 
-6.861570 17.875347 7.228660 -164.852825 -75.290308 171.247875 -1.366632 -1.182883 -1.095933 -14.276566 -8.374996 -15.409576 0.146888 6.684687 17.080630 -0.053086 3.288780 5.877034 0.001500 0.250700 0.688700 0.127625 1.443499 -1.826857 21.856744 -0.506502 -15.924761 -8.512326 -17.021296 55.026128 -0.018112 -5.603112 12.809102 -0.105500 -2.094100 5.765800 0.412766 0.694465 1.635113 0.564478 1.286613 -5.552451 4.836603 0.420580 -2.570060 -13.639613 -12.208804 -9.478924 9.636529 -14.592467 3.543259 4.333100 -7.153800 6.495000 5.996338 3.035684 0.693495 -88.434000 7.226062 -1.812626 11.166619 -27.840740 -3.166372 1.639791 2.495177 26.401110 12.624848 23.719794 4.406400 -7.125000 0.000000 0.000000 -16.197900 50.429100 -2.218000 -3.603532 -3.133166 -1.502017 87.628104 -0.266369 16.723953 -15.372595 29.356786 -3.957315 -0.731407 0.328333 27.628425 -27.582974 -41.285837 18.528700 7.125000 0.000000 0.000000 17.481100 -74.216600 -12.157600 
-6.997323 17.885812 7.203244 -165.646219 -75.353857 171.957862 -1.382949 -1.170212 -1.069521 -14.675125 -8.238961 -14.768696 0.131127 6.632392 16.933433 -0.044294 3.168771 5.577439 0.002400 0.317100 0.871200 0.114883 1.445062 -1.852804 21.312150 -0.482167 -16.856119 -8.764757 -17.184867 55.826694 0.138661 -6.536667 12.392134 -0.089700 -1.931100 5.315400 0.259187 0.529386 1.712728 0.607707 1.074897 -5.514814 5.027236 0.313228 -2.508868 -13.490632 -12.060187 -9.618434 9.493221 -14.395567 3.565506 4.278300 -7.058100 6.473100 6.053966 3.046258 0.689228 -88.775033 7.260972 -2.191886 10.736806 -27.354497 -3.043184 1.675095 2.486291 27.113004 12.434352 23.711499 4.332800 -7.125000 0.000000 0.000000 -16.369700 50.380500 -2.222700 -3.608999 -3.170934 -1.478398 88.141259 -1.489825 15.630575 -14.037449 27.590201 -3.327073 -0.729700 0.366153 27.284401 -25.361521 -40.086988 16.491000 7.125000 0.000000 0.000000 18.543800 -72.339200 -12.163000 
-7.131480 17.896078 7.177827 -166.406143 -75.413869 172.641058 -1.398050 -1.157806 -1.043602 -15.056547 -8.096286 -14.127684 0.114015 6.573515 16.768061 -0.035986 3.051873 5.267979 0.003300 0.371900 1.021900 0.101947 1.446399 -1.878742 20.784689 -0.448891 -17.785178 -8.986504 -17.324751 56.516314 0.306688 -7.474019 11.904553 -0.077300 -1.793600 4.935600 0.119153 0.361655 1.793636 0.653616 0.859466 -5.477536 5.216322 0.203485 -2.447649 -13.334962 -11.908751 -9.762242 9.351928 -14.195200 3.580556 4.222900 -6.960300 6.449400 6.111126 3.056212 0.684933 -89.107965 7.298187 -2.532539 10.319171 -26.881310 -2.925946 1.708566 2.477488 27.814848 12.234164 23.700132 4.255800 -7.125000 0.000000 0.000000 -16.547900 50.328300 -2.226400 -3.613825 -3.208052 -1.454757 88.602322 -2.675016 14.366359 -12.838515 25.926682 -2.796334 -0.729468 0.400388 27.054267 -23.303361 -38.852792 14.643800 7.125000 0.000000 0.000000 19.378200 -70.517200 -11.951900 
-7.264242 17.906145 7.152311 -167.135599 -75.469106 173.301385 -1.411997 -1.145726 -1.018261 -15.421101 -7.948902 -13.488929 0.095668 6.508208 16.585247 -0.027219 2.934236 4.950280 0.004100 0.412100 1.132500 0.088813 1.447508 -1.904560 20.274667 -0.405178 -18.708527 -9.174113 -17.440494 57.087471 0.484878 -8.409183 11.349441 -0.068100 -1.683200 4.630900 -0.008226 0.192176 1.877158 0.702130 0.641119 -5.440831 5.404073 0.091786 -2.386946 -13.172641 -11.755067 -9.911812 9.211352 -13.992263 3.589941 4.166100 -6.861000 6.424800 6.167684 3.065407 0.680747 -89.432602 7.336308 -2.829578 9.915585 -26.424364 -2.815046 1.739481 2.469968 28.500551 12.017310 23.691614 4.174300 -7.125000 0.000000 0.000000 -16.740500 50.276500 -2.231800 -3.618032 -3.244331 -1.431909 89.012472 -3.823552 12.929473 -11.764004 24.370145 -2.351090 -0.729717 0.430791 26.962529 -21.412168 -37.619477 12.990700 7.125000 0.000000 0.000000 20.065900 -68.780000 -11.614400 
-7.395509 17.915813 7.126596 -167.835530 -75.518611 173.942803 -1.424883 -1.133932 -0.993517 -15.769324 -7.797651 -12.853022 0.076073 6.436398 16.384739 -0.018386 2.818517 4.627884 0.004600 0.439000 1.206300 0.075498 1.448372 -1.930173 19.781602 -0.349975 -19.619826 -9.323788 -17.531559 57.530776 0.671392 -9.336531 10.732925 -0.062100 -1.607800 4.422900 -0.123968 0.021138 1.962903 0.752948 0.420268 -5.404813 5.590147 -0.021455 -2.326806 -13.004245 -11.598456 -10.067065 9.072715 -13.785751 3.594619 4.108600 -6.759600 6.399600 6.223130 3.073670 0.676990 -89.747898 7.378540 -3.073088 9.530955 -25.990506 -2.711373 1.767573 2.463080 29.157029 11.793966 23.676583 4.090100 -7.125000 0.000000 0.000000 -16.935200 50.218300 -2.234400 -3.621574 -3.279440 -1.410561 89.373873 -4.938316 11.323795 -10.803788 22.923945 -1.978767 -0.729724 0.457328 27.026667 -19.682020 -36.423080 11.525600 7.125000 0.000000 0.000000 20.665900 -67.151400 -11.215100 
-7.525281 17.924983 7.100781 -168.511908 -75.562331 174.569300 -1.436784 -1.122424 -0.969527 -16.101387 -7.644910 -12.221591 0.055625 6.358825 16.168347 -0.010524 2.711000 4.302492 0.004900 0.451000 1.239100 0.062020 1.449004 -1.955519 19.305960 -0.282768 -20.514946 -9.432322 -17.597512 57.838644 0.864503 -10.249828 10.060888 -0.058900 -1.565700 4.307000 -0.230295 -0.151311 2.049588 0.805982 0.197002 -5.369147 5.775700 -0.136151 -2.265980 -12.830815 -11.438897 -10.228265 8.937028 -13.575665 3.593528 4.050900 -6.656000 6.373900 6.277669 3.081215 0.673717 -90.054306 7.420492 -3.267738 9.163890 -25.578766 -2.614424 1.792722 2.457217 29.787983 11.559976 23.657350 4.002400 -7.125000 0.000000 0.000000 -17.136000 50.155200 -2.235100 -3.624644 -3.313312 -1.391140 89.687146 -6.020178 9.553817 -9.947279 21.588179 -1.668600 -0.728780 0.480601 27.256144 -18.103040 -35.263113 10.229800 7.125000 0.000000 0.000000 21.184400 -65.622600 -10.767800 
-7.653658 17.933555 7.074668 -169.176661 -75.600804 175.192752 -1.447898 -1.111259 -0.946362 -16.420925 -7.490158 -11.597291 0.034330 6.276047 15.937542 -0.004337 2.617210 3.977309 0.004800 0.448500 1.232500 0.048330 1.449396 -1.980498 18.844111 -0.203025 -21.390259 -9.497283 -17.637670 58.004875 1.062092 -11.142834 9.339411 -0.058700 -1.563500 4.300800 -0.331687 -0.325071 2.136525 0.860441 -0.028310 -5.333991 5.960622 -0.252189 -2.204909 -12.650484 -11.276134 -10.394526 8.803533 -13.362022 3.587055 3.992400 -6.550300 6.347200 6.330687 3.087875 0.671147 -90.349722 7.464699 -3.402777 8.819917 -25.197120 -2.525234 1.814113 2.452825 30.380578 11.316510 23.632442 3.911300 -7.125000 0.000000 0.000000 -17.341200 50.086300 -2.233300 -3.627102 -3.345845 -1.374174 89.953730 -7.071394 7.631523 -9.185655 20.362450 -1.411164 -0.726474 0.501010 27.653788 -16.660266 -34.151267 9.085200 7.125000 0.000000 0.000000 21.647200 -64.196700 -10.299700 
